<?xml version="1.0" encoding="UTF-8"?>
<svg width="80px" height="70px" viewBox="0 0 80 70" version="1.1" xmlns="http://www.w3.org/2000/svg" xmlns:xlink="http://www.w3.org/1999/xlink">
    <!-- Generator: Sketch 53.2 (72643) - https://sketchapp.com -->
    <title>noun_comments_1359690</title>
    <desc>Created with Sketch.</desc>
    <g id="Page-1" stroke="none" stroke-width="1" fill="none" fill-rule="evenodd" fill-opacity="0.747875">
        <g id="Instagram" transform="translate(-473.000000, -509.000000)" fill="#FFFFFF" fill-rule="nonzero">
            <g id="noun_comments_1359690" transform="translate(473.000000, 509.000000)">
                <path d="M40,0.81 C18.36,0.81 0.75,14.89 0.75,32.19 C0.75,49.49 18.36,63.56 40,63.56 C44.3933342,63.5691593 48.7672532,62.9769979 53,61.8 L70,69 C70.6633837,69.2807275 71.4264796,69.1830298 71.9977439,68.7442326 C72.5690081,68.3054354 72.8601739,67.5933379 72.76,66.88 L70.64,51.78 C76.0171959,46.6547058 79.1149669,39.5874655 79.24,32.16 C79.25,14.89 61.64,0.81 40,0.81 Z M67.16,49.61 C66.685493,50.0560868 66.4579036,50.7052764 66.55,51.35 L68.32,64 L53.91,57.85 C53.4829408,57.6673854 53.0056378,57.6391008 52.56,57.77 C48.4816105,58.969466 44.2510971,59.5723816 40,59.56 C20.56,59.56 4.75,47.28 4.75,32.19 C4.75,17.1 20.56,4.81 40,4.81 C59.44,4.81 75.25,17.09 75.25,32.19 C75.25,38.53 72.38,44.72 67.16,49.62 L67.16,49.61 Z" id="Shape"></path>
                <path d="M23.83,26.22 L36.17,26.22 C37.2745695,26.22 38.17,25.3245695 38.17,24.22 C38.17,23.1154305 37.2745695,22.22 36.17,22.22 L23.83,22.22 C22.7254305,22.22 21.83,23.1154305 21.83,24.22 C21.83,25.3245695 22.7254305,26.22 23.83,26.22 Z" id="Path"></path>
                <path d="M56.17,36.22 L23.83,36.22 C22.7254305,36.22 21.83,37.1154305 21.83,38.22 C21.83,39.3245695 22.7254305,40.22 23.83,40.22 L56.17,40.22 C57.2745695,40.22 58.17,39.3245695 58.17,38.22 C58.17,37.1154305 57.2745695,36.22 56.17,36.22 Z" id="Path"></path>
            </g>
        </g>
    </g>
</svg>